<?xml version="1.0" encoding="UTF-8"?>
<svg xmlns="http://www.w3.org/2000/svg" viewBox="0 0 384 384" width="384" height="384">
  <!-- Background -->
  <rect width="384" height="384" fill="#1976d2" rx="48" ry="48"/>
  
  <!-- POS Terminal -->
  <rect x="72" y="96" width="240" height="149.76" fill="#ffffff" rx="12" ry="12"/>
  
  <!-- Screen -->
  <rect x="84" y="108" width="216" height="90" fill="#f5f5f5" rx="6" ry="6"/>
  
  <!-- Display Content -->
  <rect x="96" y="120" width="60" height="12" fill="#1976d2" rx="3" ry="3"/>
  <rect x="96" y="138" width="90" height="9" fill="#666666" rx="1.5" ry="1.5"/>
  <rect x="96" y="150" width="75" height="9" fill="#666666" rx="1.5" ry="1.5"/>
  <rect x="96" y="162" width="45" height="9" fill="#666666" rx="1.5" ry="1.5"/>
  
  <!-- Total Amount -->
  <rect x="180" y="120" width="90" height="24" fill="#4caf50" rx="6" ry="6"/>
  <text x="225" y="135" text-anchor="middle" fill="white" font-family="Arial, sans-serif" font-size="12" font-weight="bold">$24.99</text>
  
  <!-- Keypad -->
  <circle cx="120" cy="225" r="9" fill="#e0e0e0"/>
  <circle cx="150" cy="225" r="9" fill="#e0e0e0"/>
  <circle cx="180" cy="225" r="9" fill="#e0e0e0"/>
  <circle cx="210" cy="225" r="9" fill="#e0e0e0"/>
  <circle cx="240" cy="225" r="9" fill="#e0e0e0"/>
  <circle cx="270" cy="225" r="9" fill="#e0e0e0"/>
  
  <!-- Card Reader -->
  <rect x="84" y="240" width="60" height="6" fill="#424242" rx="3" ry="3"/>
  
  <!-- Receipt Printer -->
  <rect x="240" y="240" width="60" height="6" fill="#424242" rx="3" ry="3"/>
  
  <!-- Receipt Paper -->
  <rect x="247.5" y="255" width="45" height="30" fill="#ffffff" rx="1.5" ry="1.5"/>
  <rect x="255" y="262.5" width="30" height="1.5" fill="#666666"/>
  <rect x="255" y="266.25" width="30" height="1.5" fill="#666666"/>
  <rect x="255" y="270" width="30" height="1.5" fill="#666666"/>
  <rect x="255" y="273.75" width="30" height="1.5" fill="#666666"/>
  <rect x="255" y="277.5" width="30" height="1.5" fill="#666666"/>
  
  <!-- Shopping Cart Icon -->
  <g transform="translate(300, 60)">
    <circle cx="15" cy="15" r="12" fill="#ff9800"/>
    <circle cx="30" cy="15" r="12" fill="#ff9800"/>
    <rect x="6" y="21" width="33" height="6" fill="#ff9800" rx="1.5" ry="1.5"/>
    <rect x="9" y="27" width="27" height="3" fill="#ff9800" rx="0.75" ry="0.75"/>
    <rect x="12" y="30" width="21" height="3" fill="#ff9800" rx="0.75" ry="0.75"/>
  </g>
  
  <!-- Dollar Sign -->
  <text x="192" y="315" text-anchor="middle" fill="white" font-family="Arial, sans-serif" font-size="36" font-weight="bold">$</text>
</svg>