<?xml version="1.0" encoding="UTF-8"?>
<svg xmlns="http://www.w3.org/2000/svg" viewBox="0 0 144 144" width="144" height="144">
  <!-- Background -->
  <rect width="144" height="144" fill="#1976d2" rx="18" ry="18"/>
  
  <!-- POS Terminal -->
  <rect x="27" y="36" width="90" height="56.160000000000004" fill="#ffffff" rx="4.5" ry="4.5"/>
  
  <!-- Screen -->
  <rect x="31.5" y="40.5" width="81" height="33.75" fill="#f5f5f5" rx="2.25" ry="2.25"/>
  
  <!-- Display Content -->
  <rect x="36" y="45" width="22.5" height="4.5" fill="#1976d2" rx="1.125" ry="1.125"/>
  <rect x="36" y="51.75" width="33.75" height="3.375" fill="#666666" rx="0.5625" ry="0.5625"/>
  <rect x="36" y="56.25" width="28.125" height="3.375" fill="#666666" rx="0.5625" ry="0.5625"/>
  <rect x="36" y="60.75" width="16.875" height="3.375" fill="#666666" rx="0.5625" ry="0.5625"/>
  
  <!-- Total Amount -->
  <rect x="67.5" y="45" width="33.75" height="9" fill="#4caf50" rx="2.25" ry="2.25"/>
  <text x="84.375" y="50.625" text-anchor="middle" fill="white" font-family="Arial, sans-serif" font-size="4.5" font-weight="bold">$24.99</text>
  
  <!-- Keypad -->
  <circle cx="45" cy="84.375" r="3.375" fill="#e0e0e0"/>
  <circle cx="56.25" cy="84.375" r="3.375" fill="#e0e0e0"/>
  <circle cx="67.5" cy="84.375" r="3.375" fill="#e0e0e0"/>
  <circle cx="78.75" cy="84.375" r="3.375" fill="#e0e0e0"/>
  <circle cx="90" cy="84.375" r="3.375" fill="#e0e0e0"/>
  <circle cx="101.25" cy="84.375" r="3.375" fill="#e0e0e0"/>
  
  <!-- Card Reader -->
  <rect x="31.5" y="90" width="22.5" height="2.25" fill="#424242" rx="1.125" ry="1.125"/>
  
  <!-- Receipt Printer -->
  <rect x="90" y="90" width="22.5" height="2.25" fill="#424242" rx="1.125" ry="1.125"/>
  
  <!-- Receipt Paper -->
  <rect x="92.8125" y="95.625" width="16.875" height="11.25" fill="#ffffff" rx="0.5625" ry="0.5625"/>
  <rect x="95.625" y="98.4375" width="11.25" height="0.5625" fill="#666666"/>
  <rect x="95.625" y="99.84375" width="11.25" height="0.5625" fill="#666666"/>
  <rect x="95.625" y="101.25" width="11.25" height="0.5625" fill="#666666"/>
  <rect x="95.625" y="102.65625" width="11.25" height="0.5625" fill="#666666"/>
  <rect x="95.625" y="104.0625" width="11.25" height="0.5625" fill="#666666"/>
  
  <!-- Shopping Cart Icon -->
  <g transform="translate(112.5, 22.5)">
    <circle cx="5.625" cy="5.625" r="4.5" fill="#ff9800"/>
    <circle cx="11.25" cy="5.625" r="4.5" fill="#ff9800"/>
    <rect x="2.25" y="7.875" width="12.375" height="2.25" fill="#ff9800" rx="0.5625" ry="0.5625"/>
    <rect x="3.375" y="10.125" width="10.125" height="1.125" fill="#ff9800" rx="0.28125" ry="0.28125"/>
    <rect x="4.5" y="11.25" width="7.875" height="1.125" fill="#ff9800" rx="0.28125" ry="0.28125"/>
  </g>
  
  <!-- Dollar Sign -->
  <text x="72" y="118.125" text-anchor="middle" fill="white" font-family="Arial, sans-serif" font-size="13.5" font-weight="bold">$</text>
</svg>