<?xml version="1.0" encoding="UTF-8"?>
<svg xmlns="http://www.w3.org/2000/svg" viewBox="0 0 192 192" width="192" height="192">
  <!-- Background -->
  <rect width="192" height="192" fill="#1976d2" rx="24" ry="24"/>
  
  <!-- POS Terminal -->
  <rect x="36" y="48" width="120" height="74.88" fill="#ffffff" rx="6" ry="6"/>
  
  <!-- Screen -->
  <rect x="42" y="54" width="108" height="45" fill="#f5f5f5" rx="3" ry="3"/>
  
  <!-- Display Content -->
  <rect x="48" y="60" width="30" height="6" fill="#1976d2" rx="1.5" ry="1.5"/>
  <rect x="48" y="69" width="45" height="4.5" fill="#666666" rx="0.75" ry="0.75"/>
  <rect x="48" y="75" width="37.5" height="4.5" fill="#666666" rx="0.75" ry="0.75"/>
  <rect x="48" y="81" width="22.5" height="4.5" fill="#666666" rx="0.75" ry="0.75"/>
  
  <!-- Total Amount -->
  <rect x="90" y="60" width="45" height="12" fill="#4caf50" rx="3" ry="3"/>
  <text x="112.5" y="67.5" text-anchor="middle" fill="white" font-family="Arial, sans-serif" font-size="6" font-weight="bold">$24.99</text>
  
  <!-- Keypad -->
  <circle cx="60" cy="112.5" r="4.5" fill="#e0e0e0"/>
  <circle cx="75" cy="112.5" r="4.5" fill="#e0e0e0"/>
  <circle cx="90" cy="112.5" r="4.5" fill="#e0e0e0"/>
  <circle cx="105" cy="112.5" r="4.5" fill="#e0e0e0"/>
  <circle cx="120" cy="112.5" r="4.5" fill="#e0e0e0"/>
  <circle cx="135" cy="112.5" r="4.5" fill="#e0e0e0"/>
  
  <!-- Card Reader -->
  <rect x="42" y="120" width="30" height="3" fill="#424242" rx="1.5" ry="1.5"/>
  
  <!-- Receipt Printer -->
  <rect x="120" y="120" width="30" height="3" fill="#424242" rx="1.5" ry="1.5"/>
  
  <!-- Receipt Paper -->
  <rect x="123.75" y="127.5" width="22.5" height="15" fill="#ffffff" rx="0.75" ry="0.75"/>
  <rect x="127.5" y="131.25" width="15" height="0.75" fill="#666666"/>
  <rect x="127.5" y="133.125" width="15" height="0.75" fill="#666666"/>
  <rect x="127.5" y="135" width="15" height="0.75" fill="#666666"/>
  <rect x="127.5" y="136.875" width="15" height="0.75" fill="#666666"/>
  <rect x="127.5" y="138.75" width="15" height="0.75" fill="#666666"/>
  
  <!-- Shopping Cart Icon -->
  <g transform="translate(150, 30)">
    <circle cx="7.5" cy="7.5" r="6" fill="#ff9800"/>
    <circle cx="15" cy="7.5" r="6" fill="#ff9800"/>
    <rect x="3" y="10.5" width="16.5" height="3" fill="#ff9800" rx="0.75" ry="0.75"/>
    <rect x="4.5" y="13.5" width="13.5" height="1.5" fill="#ff9800" rx="0.375" ry="0.375"/>
    <rect x="6" y="15" width="10.5" height="1.5" fill="#ff9800" rx="0.375" ry="0.375"/>
  </g>
  
  <!-- Dollar Sign -->
  <text x="96" y="157.5" text-anchor="middle" fill="white" font-family="Arial, sans-serif" font-size="18" font-weight="bold">$</text>
</svg>