<?xml version="1.0" encoding="UTF-8"?>
<svg xmlns="http://www.w3.org/2000/svg" viewBox="0 0 96 96" width="96" height="96">
  <!-- Background -->
  <rect width="96" height="96" fill="#1976d2" rx="12" ry="12"/>
  
  <!-- POS Terminal -->
  <rect x="18" y="24" width="60" height="37.44" fill="#ffffff" rx="3" ry="3"/>
  
  <!-- Screen -->
  <rect x="21" y="27" width="54" height="22.5" fill="#f5f5f5" rx="1.5" ry="1.5"/>
  
  <!-- Display Content -->
  <rect x="24" y="30" width="15" height="3" fill="#1976d2" rx="0.75" ry="0.75"/>
  <rect x="24" y="34.5" width="22.5" height="2.25" fill="#666666" rx="0.375" ry="0.375"/>
  <rect x="24" y="37.5" width="18.75" height="2.25" fill="#666666" rx="0.375" ry="0.375"/>
  <rect x="24" y="40.5" width="11.25" height="2.25" fill="#666666" rx="0.375" ry="0.375"/>
  
  <!-- Total Amount -->
  <rect x="45" y="30" width="22.5" height="6" fill="#4caf50" rx="1.5" ry="1.5"/>
  <text x="56.25" y="33.75" text-anchor="middle" fill="white" font-family="Arial, sans-serif" font-size="3" font-weight="bold">$24.99</text>
  
  <!-- Keypad -->
  <circle cx="30" cy="56.25" r="2.25" fill="#e0e0e0"/>
  <circle cx="37.5" cy="56.25" r="2.25" fill="#e0e0e0"/>
  <circle cx="45" cy="56.25" r="2.25" fill="#e0e0e0"/>
  <circle cx="52.5" cy="56.25" r="2.25" fill="#e0e0e0"/>
  <circle cx="60" cy="56.25" r="2.25" fill="#e0e0e0"/>
  <circle cx="67.5" cy="56.25" r="2.25" fill="#e0e0e0"/>
  
  <!-- Card Reader -->
  <rect x="21" y="60" width="15" height="1.5" fill="#424242" rx="0.75" ry="0.75"/>
  
  <!-- Receipt Printer -->
  <rect x="60" y="60" width="15" height="1.5" fill="#424242" rx="0.75" ry="0.75"/>
  
  <!-- Receipt Paper -->
  <rect x="61.875" y="63.75" width="11.25" height="7.5" fill="#ffffff" rx="0.375" ry="0.375"/>
  <rect x="63.75" y="65.625" width="7.5" height="0.375" fill="#666666"/>
  <rect x="63.75" y="66.5625" width="7.5" height="0.375" fill="#666666"/>
  <rect x="63.75" y="67.5" width="7.5" height="0.375" fill="#666666"/>
  <rect x="63.75" y="68.4375" width="7.5" height="0.375" fill="#666666"/>
  <rect x="63.75" y="69.375" width="7.5" height="0.375" fill="#666666"/>
  
  <!-- Shopping Cart Icon -->
  <g transform="translate(75, 15)">
    <circle cx="3.75" cy="3.75" r="3" fill="#ff9800"/>
    <circle cx="7.5" cy="3.75" r="3" fill="#ff9800"/>
    <rect x="1.5" y="5.25" width="8.25" height="1.5" fill="#ff9800" rx="0.375" ry="0.375"/>
    <rect x="2.25" y="6.75" width="6.75" height="0.75" fill="#ff9800" rx="0.1875" ry="0.1875"/>
    <rect x="3" y="7.5" width="5.25" height="0.75" fill="#ff9800" rx="0.1875" ry="0.1875"/>
  </g>
  
  <!-- Dollar Sign -->
  <text x="48" y="78.75" text-anchor="middle" fill="white" font-family="Arial, sans-serif" font-size="9" font-weight="bold">$</text>
</svg>